<?xml version="1.0" encoding="UTF-8" standalone="no"?><!DOCTYPE svg PUBLIC "-//W3C//DTD SVG 1.1//EN" "http://www.w3.org/Graphics/SVG/1.1/DTD/svg11.dtd"><svg width="100%" height="100%" viewBox="0 0 1860 767" version="1.1" xmlns="http://www.w3.org/2000/svg" xmlns:xlink="http://www.w3.org/1999/xlink" xml:space="preserve" xmlns:serif="http://www.serif.com/" style="fill-rule:evenodd;clip-rule:evenodd;stroke-linejoin:round;stroke-miterlimit:2;"><g><path d="M1447.73,520.994l28.331,-0l0,79.855l-28.331,0l0,-8.872c-6.019,7.575 -14.165,11.363 -24.439,11.363c-5.811,0 -11.156,-1.064 -16.033,-3.191c-4.878,-2.127 -9.132,-5.111 -12.765,-8.951c-3.632,-3.839 -6.46,-8.354 -8.483,-13.542c-2.024,-5.189 -3.036,-10.845 -3.036,-16.968c0,-5.707 0.986,-11.13 2.958,-16.267c1.972,-5.137 4.722,-9.625 8.25,-13.465c3.529,-3.839 7.731,-6.875 12.609,-9.106c4.877,-2.231 10.274,-3.347 16.189,-3.347c9.962,0 18.213,3.477 24.75,10.43l0,-7.939Zm-212.481,-0l28.331,-0l0,79.855l-28.331,0l0,-8.872c-6.019,7.575 -14.165,11.363 -24.439,11.363c-5.811,0 -11.156,-1.064 -16.033,-3.191c-4.878,-2.127 -9.132,-5.111 -12.765,-8.951c-3.632,-3.839 -6.46,-8.354 -8.483,-13.542c-2.024,-5.189 -3.036,-10.845 -3.036,-16.968c0,-5.707 0.986,-11.13 2.958,-16.267c1.972,-5.137 4.722,-9.625 8.25,-13.465c3.529,-3.839 7.731,-6.875 12.609,-9.106c4.877,-2.231 10.274,-3.347 16.189,-3.347c9.962,0 18.213,3.477 24.75,10.43l0,-7.939Zm-181.348,-37.515l45.143,-0c7.99,-0 15.488,1.609 22.493,4.826c7.005,3.217 13.128,7.497 18.368,12.842c5.241,5.344 9.366,11.571 12.376,18.679c3.009,7.109 4.514,14.555 4.514,22.338c-0,7.68 -1.479,15.074 -4.436,22.182c-2.958,7.109 -7.057,13.361 -12.298,18.758c-5.241,5.396 -11.363,9.703 -18.368,12.92c-7.005,3.217 -14.555,4.825 -22.649,4.825l-45.143,0l0,-117.37Zm228.826,37.515l28.175,-0l0,10.118c3.84,-4.67 7.731,-7.809 11.675,-9.418c3.943,-1.608 8.561,-2.412 13.854,-2.412c5.604,-0 10.403,0.908 14.399,2.724c3.995,1.816 7.394,4.384 10.196,7.705c2.283,2.698 3.839,5.708 4.67,9.029c0.83,3.32 1.245,7.108 1.245,11.363l0,50.746l-28.175,0l-0,-40.316c-0,-3.944 -0.286,-7.135 -0.856,-9.574c-0.571,-2.439 -1.583,-4.384 -3.036,-5.837c-1.245,-1.245 -2.646,-2.128 -4.203,-2.646c-1.556,-0.519 -3.217,-0.779 -4.981,-0.779c-4.774,0 -8.432,1.427 -10.974,4.281c-2.543,2.854 -3.814,6.927 -3.814,12.22l0,42.651l-28.175,0l-0,-79.855Zm129.512,39.694c0,2.595 0.467,5.007 1.401,7.239c0.934,2.231 2.205,4.177 3.814,5.837c1.608,1.66 3.528,2.958 5.759,3.892c2.232,0.934 4.644,1.401 7.239,1.401c2.49,-0 4.851,-0.467 7.083,-1.401c2.231,-0.934 4.151,-2.232 5.759,-3.892c1.609,-1.66 2.906,-3.58 3.892,-5.76c0.986,-2.179 1.478,-4.514 1.478,-7.004c0,-2.491 -0.492,-4.852 -1.478,-7.083c-0.986,-2.231 -2.283,-4.177 -3.892,-5.838c-1.608,-1.66 -3.528,-2.957 -5.759,-3.891c-2.232,-0.934 -4.593,-1.401 -7.083,-1.401c-2.595,-0 -5.007,0.467 -7.239,1.401c-2.231,0.934 -4.151,2.231 -5.759,3.891c-1.609,1.661 -2.88,3.555 -3.814,5.682c-0.934,2.128 -1.401,4.437 -1.401,6.927Zm-212.481,0c0,2.595 0.467,5.007 1.401,7.239c0.934,2.231 2.205,4.177 3.814,5.837c1.608,1.66 3.528,2.958 5.759,3.892c2.232,0.934 4.644,1.401 7.239,1.401c2.49,-0 4.851,-0.467 7.082,-1.401c2.232,-0.934 4.152,-2.232 5.76,-3.892c1.609,-1.66 2.906,-3.58 3.892,-5.76c0.986,-2.179 1.478,-4.514 1.478,-7.004c0,-2.491 -0.492,-4.852 -1.478,-7.083c-0.986,-2.231 -2.283,-4.177 -3.892,-5.838c-1.608,-1.66 -3.528,-2.957 -5.76,-3.891c-2.231,-0.934 -4.592,-1.401 -7.082,-1.401c-2.595,-0 -5.007,0.467 -7.239,1.401c-2.231,0.934 -4.151,2.231 -5.759,3.891c-1.609,1.661 -2.88,3.555 -3.814,5.682c-0.934,2.128 -1.401,4.437 -1.401,6.927Zm-115.347,14.321l7.005,0c5.293,0 10.015,-0.83 14.166,-2.49c4.151,-1.661 7.653,-3.944 10.507,-6.85c2.854,-2.905 5.033,-6.356 6.538,-10.351c1.504,-3.996 2.257,-8.38 2.257,-13.154c-0,-4.67 -0.778,-9.028 -2.335,-13.076c-1.557,-4.047 -3.762,-7.523 -6.616,-10.429c-2.854,-2.906 -6.356,-5.189 -10.507,-6.849c-4.151,-1.661 -8.821,-2.491 -14.01,-2.491l-7.005,0l0,65.69Zm97.757,-169.673c0,12.142 5.708,18.212 17.123,18.212c6.123,0 10.741,-2.49 13.854,-7.471l27.241,-0c-5.5,18.264 -19.25,27.396 -41.251,27.396c-6.745,0 -12.92,-1.011 -18.524,-3.035c-5.603,-2.024 -10.403,-4.903 -14.398,-8.639c-3.996,-3.736 -7.083,-8.199 -9.262,-13.387c-2.18,-5.189 -3.269,-11.001 -3.269,-17.435c-0,-6.641 1.037,-12.635 3.113,-17.979c2.075,-5.344 5.033,-9.885 8.873,-13.621c3.839,-3.735 8.483,-6.615 13.932,-8.639c5.448,-2.024 11.597,-3.035 18.446,-3.035c6.745,-0 12.816,1.011 18.212,3.035c5.397,2.024 9.963,4.955 13.699,8.795c3.736,3.84 6.59,8.536 8.561,14.088c1.972,5.552 2.958,11.804 2.958,18.757l0,2.958l-59.308,-0Zm238.944,-18.836c-4.877,-3.32 -9.807,-4.981 -14.788,-4.981c-2.698,0 -5.215,0.467 -7.55,1.401c-2.335,0.934 -4.384,2.257 -6.148,3.97c-1.765,1.712 -3.14,3.736 -4.126,6.071c-0.985,2.334 -1.478,4.955 -1.478,7.861c-0,2.801 0.493,5.37 1.478,7.705c0.986,2.335 2.335,4.358 4.048,6.071c1.712,1.712 3.762,3.035 6.148,3.969c2.387,0.934 4.93,1.401 7.628,1.401c5.293,0 10.222,-1.816 14.788,-5.448l-0,23.972c-6.953,3.01 -13.543,4.514 -19.769,4.514c-5.812,0 -11.338,-0.985 -16.578,-2.957c-5.241,-1.972 -9.859,-4.8 -13.855,-8.484c-3.995,-3.684 -7.186,-8.094 -9.573,-13.231c-2.387,-5.137 -3.58,-10.871 -3.58,-17.201c-0,-6.33 1.141,-12.116 3.424,-17.357c2.284,-5.24 5.397,-9.755 9.34,-13.542c3.944,-3.788 8.64,-6.746 14.088,-8.873c5.448,-2.128 11.285,-3.191 17.512,-3.191c6.849,-0 13.18,1.453 18.991,4.358l-0,23.972Zm306.658,-25.84l28.33,0l0,79.856l-28.33,-0l-0,-8.873c-6.019,7.576 -14.166,11.363 -24.44,11.363c-5.811,0 -11.156,-1.063 -16.033,-3.191c-4.877,-2.127 -9.132,-5.111 -12.764,-8.95c-3.633,-3.84 -6.46,-8.354 -8.484,-13.543c-2.024,-5.189 -3.036,-10.845 -3.036,-16.967c0,-5.708 0.986,-11.13 2.958,-16.267c1.972,-5.137 4.722,-9.626 8.25,-13.465c3.529,-3.84 7.732,-6.875 12.609,-9.107c4.877,-2.231 10.274,-3.346 16.189,-3.346c9.963,-0 18.213,3.476 24.751,10.429l-0,-7.939Zm-228.982,0l28.331,0l0,79.856l-28.331,-0l0,-8.873c-6.019,7.576 -14.165,11.363 -24.439,11.363c-5.811,0 -11.156,-1.063 -16.033,-3.191c-4.878,-2.127 -9.133,-5.111 -12.765,-8.95c-3.632,-3.84 -6.46,-8.354 -8.483,-13.543c-2.024,-5.189 -3.036,-10.845 -3.036,-16.967c0,-5.708 0.986,-11.13 2.958,-16.267c1.971,-5.137 4.721,-9.626 8.25,-13.465c3.528,-3.84 7.731,-6.875 12.609,-9.107c4.877,-2.231 10.273,-3.346 16.189,-3.346c9.962,-0 18.212,3.476 24.75,10.429l0,-7.939Zm94.955,0l28.175,0l0,13.076c3.01,-4.774 6.694,-8.432 11.052,-10.974c4.359,-2.543 9.444,-3.814 15.255,-3.814l2.413,-0c0.882,-0 1.894,0.104 3.036,0.311l-0,26.93c-3.736,-1.868 -7.784,-2.802 -12.142,-2.802c-6.538,0 -11.441,1.946 -14.71,5.838c-3.269,3.891 -4.904,9.573 -4.904,17.045l0,34.246l-28.175,-0l0,-79.856Zm-19.302,0l-0,79.856l-28.175,-0l-0,-79.856l28.175,0Zm-490.03,79.856l-30.51,-0l0,-117.371l48.567,0c13.18,0 23.272,3.425 30.277,10.274c7.005,6.849 10.507,16.5 10.507,28.954c0,12.453 -3.502,22.104 -10.507,28.953c-7.005,6.849 -17.097,10.274 -30.277,10.274l-18.057,-0l0,38.916Zm173.098,-79.856l28.176,0l-0,10.118c3.839,-4.669 7.731,-7.809 11.674,-9.417c3.944,-1.609 8.562,-2.413 13.854,-2.413c5.604,-0 10.404,0.908 14.399,2.724c3.996,1.816 7.394,4.385 10.196,7.705c2.283,2.699 3.84,5.708 4.67,9.029c0.83,3.321 1.245,7.109 1.245,11.363l0,50.747l-28.175,-0l0,-40.317c0,-3.944 -0.285,-7.135 -0.856,-9.573c-0.571,-2.439 -1.582,-4.385 -3.035,-5.838c-1.246,-1.245 -2.647,-2.127 -4.203,-2.646c-1.557,-0.519 -3.217,-0.778 -4.981,-0.778c-4.774,-0 -8.432,1.426 -10.975,4.28c-2.542,2.854 -3.813,6.927 -3.813,12.22l-0,42.652l-28.176,-0l0,-79.856Zm517.738,0l28.175,0l0,10.118c3.84,-4.669 7.731,-7.809 11.675,-9.417c3.943,-1.609 8.561,-2.413 13.854,-2.413c5.604,-0 10.404,0.908 14.399,2.724c3.995,1.816 7.394,4.385 10.196,7.705c2.283,2.699 3.84,5.708 4.67,9.029c0.83,3.321 1.245,7.109 1.245,11.363l0,50.747l-28.175,-0l-0,-40.317c-0,-3.944 -0.285,-7.135 -0.856,-9.573c-0.571,-2.439 -1.583,-4.385 -3.036,-5.838c-1.245,-1.245 -2.646,-2.127 -4.203,-2.646c-1.556,-0.519 -3.217,-0.778 -4.981,-0.778c-4.773,-0 -8.432,1.426 -10.974,4.28c-2.543,2.854 -3.814,6.927 -3.814,12.22l0,42.652l-28.175,-0l0,-79.856Zm-82.969,39.695c0,2.594 0.467,5.007 1.401,7.238c0.934,2.231 2.205,4.177 3.814,5.837c1.609,1.661 3.528,2.958 5.76,3.892c2.231,0.934 4.644,1.401 7.238,1.401c2.491,-0 4.851,-0.467 7.083,-1.401c2.231,-0.934 4.151,-2.231 5.759,-3.892c1.609,-1.66 2.906,-3.58 3.892,-5.759c0.986,-2.18 1.479,-4.515 1.479,-7.005c-0,-2.491 -0.493,-4.852 -1.479,-7.083c-0.986,-2.231 -2.283,-4.177 -3.892,-5.837c-1.608,-1.661 -3.528,-2.958 -5.759,-3.892c-2.232,-0.934 -4.592,-1.401 -7.083,-1.401c-2.594,0 -5.007,0.467 -7.238,1.401c-2.232,0.934 -4.151,2.231 -5.76,3.892c-1.609,1.66 -2.88,3.554 -3.814,5.682c-0.934,2.127 -1.401,4.436 -1.401,6.927Zm-228.981,-0c-0,2.594 0.467,5.007 1.401,7.238c0.934,2.231 2.205,4.177 3.814,5.837c1.608,1.661 3.528,2.958 5.759,3.892c2.231,0.934 4.644,1.401 7.239,1.401c2.49,-0 4.851,-0.467 7.082,-1.401c2.231,-0.934 4.151,-2.231 5.76,-3.892c1.608,-1.66 2.906,-3.58 3.891,-5.759c0.986,-2.18 1.479,-4.515 1.479,-7.005c0,-2.491 -0.493,-4.852 -1.479,-7.083c-0.985,-2.231 -2.283,-4.177 -3.891,-5.837c-1.609,-1.661 -3.529,-2.958 -5.76,-3.892c-2.231,-0.934 -4.592,-1.401 -7.082,-1.401c-2.595,0 -5.008,0.467 -7.239,1.401c-2.231,0.934 -4.151,2.231 -5.759,3.892c-1.609,1.66 -2.88,3.554 -3.814,5.682c-0.934,2.127 -1.401,4.436 -1.401,6.927Zm-248.128,-11.364c-0.934,-3.943 -2.854,-7.109 -5.76,-9.495c-2.905,-2.387 -6.434,-3.581 -10.585,-3.581c-4.358,0 -7.913,1.142 -10.663,3.425c-2.75,2.283 -4.488,5.5 -5.215,9.651l32.223,0Zm-130.758,-11.986l10.118,-0c11.208,-0 16.812,-4.877 16.812,-14.632c0,-9.755 -5.604,-14.633 -16.812,-14.633l-10.118,0l0,29.265Zm459.987,-47.01c-0,-2.18 0.415,-4.229 1.245,-6.149c0.83,-1.92 1.972,-3.606 3.425,-5.059c1.452,-1.453 3.139,-2.595 5.059,-3.425c1.92,-0.83 3.969,-1.245 6.148,-1.245c2.18,-0 4.229,0.415 6.149,1.245c1.92,0.83 3.606,1.972 5.059,3.425c1.453,1.453 2.595,3.139 3.425,5.059c0.83,1.92 1.245,3.969 1.245,6.149c0,2.179 -0.415,4.228 -1.245,6.148c-0.83,1.92 -1.972,3.606 -3.425,5.059c-1.453,1.453 -3.139,2.595 -5.059,3.425c-1.92,0.83 -3.969,1.245 -6.149,1.245c-2.179,0 -4.228,-0.415 -6.148,-1.245c-1.92,-0.83 -3.607,-1.972 -5.059,-3.425c-1.453,-1.453 -2.595,-3.139 -3.425,-5.059c-0.83,-1.92 -1.245,-3.969 -1.245,-6.148Zm-306.314,-63.57l-33.292,-60.274l19.838,-0l22.651,42.564l21.13,-42.564l19.306,-0l-58.982,114.315l-19.534,0l28.883,-54.041Zm115.835,-60.274l17.178,-0l0,74.031l-17.178,0l0,-7.753c-7.043,6.588 -14.618,9.881 -22.726,9.881c-10.236,0 -18.698,-3.699 -25.387,-11.097c-6.638,-7.55 -9.957,-16.975 -9.957,-28.275c0,-11.097 3.319,-20.344 9.957,-27.742c6.638,-7.399 14.949,-11.098 24.931,-11.098c8.614,0 16.342,3.547 23.182,10.641l0,-8.588Zm-177.934,-0l17.178,-0l0,74.031l-17.178,0l0,-7.753c-7.043,6.588 -14.618,9.881 -22.726,9.881c-10.236,0 -18.698,-3.699 -25.387,-11.097c-6.638,-7.55 -9.957,-16.975 -9.957,-28.275c0,-11.097 3.319,-20.344 9.957,-27.742c6.638,-7.399 14.949,-11.098 24.931,-11.098c8.614,0 16.342,3.547 23.182,10.641l0,-8.588Zm356.628,-0l17.178,-0l0,74.031l-17.178,0l0,-7.753c-7.043,6.588 -14.618,9.881 -22.726,9.881c-10.236,0 -18.698,-3.699 -25.386,-11.097c-6.638,-7.55 -9.957,-16.975 -9.957,-28.275c-0,-11.097 3.319,-20.344 9.957,-27.742c6.638,-7.399 14.948,-11.098 24.93,-11.098c8.614,0 16.342,3.547 23.182,10.641l0,-8.588Zm38.764,-0l17.178,-0l0,6.84c5.979,-5.928 12.719,-8.893 20.218,-8.893c8.614,0 15.328,2.711 20.142,8.133c4.155,4.611 6.233,12.136 6.233,22.575l-0,45.376l-17.178,0l0,-41.348c0,-7.297 -1.013,-12.339 -3.04,-15.126c-1.976,-2.837 -5.574,-4.256 -10.793,-4.256c-5.676,-0 -9.704,1.875 -12.086,5.625c-2.33,3.699 -3.496,10.159 -3.496,19.382l0,35.723l-17.178,0l0,-74.031Zm-178.694,-0l17.178,-0l0,6.84c5.979,-5.928 12.719,-8.893 20.218,-8.893c8.614,0 15.328,2.711 20.142,8.133c4.155,4.611 6.233,12.136 6.233,22.575l-0,45.376l-17.178,0l0,-41.348c0,-7.297 -1.013,-12.339 -3.04,-15.126c-1.977,-2.837 -5.574,-4.256 -10.793,-4.256c-5.676,-0 -9.704,1.875 -12.086,5.625c-2.331,3.699 -3.496,10.159 -3.496,19.382l0,35.723l-17.178,0l0,-74.031Zm-319.308,-43.325l-0,100.71l34.507,0l0,16.646l-52.217,0l0,-117.356l17.71,0Zm239.956,80.112c0,7.094 1.9,12.871 5.701,17.33c3.902,4.51 8.817,6.765 14.745,6.765c6.334,-0 11.452,-2.179 15.354,-6.537c3.902,-4.51 5.852,-10.236 5.852,-17.178c0,-6.942 -1.95,-12.668 -5.852,-17.177c-3.902,-4.409 -8.969,-6.613 -15.202,-6.613c-5.878,-0 -10.793,2.23 -14.745,6.689c-3.902,4.509 -5.853,10.083 -5.853,16.721Zm-177.934,0c0,7.094 1.9,12.871 5.701,17.33c3.902,4.51 8.817,6.765 14.745,6.765c6.334,-0 11.452,-2.179 15.354,-6.537c3.902,-4.51 5.852,-10.236 5.852,-17.178c0,-6.942 -1.95,-12.668 -5.852,-17.177c-3.902,-4.409 -8.969,-6.613 -15.202,-6.613c-5.878,-0 -10.793,2.23 -14.745,6.689c-3.902,4.509 -5.853,10.083 -5.853,16.721Zm356.628,0c0,7.094 1.901,12.871 5.701,17.33c3.902,4.51 8.817,6.765 14.745,6.765c6.334,-0 11.452,-2.179 15.354,-6.537c3.902,-4.51 5.853,-10.236 5.853,-17.178c-0,-6.942 -1.951,-12.668 -5.853,-17.177c-3.902,-4.409 -8.969,-6.613 -15.202,-6.613c-5.877,-0 -10.793,2.23 -14.745,6.689c-3.902,4.509 -5.853,10.083 -5.853,16.721Z" style="fill:#6c6c6c;fill-rule:nonzero;"/><g><path d="M342.3,0l196.03,0.72c211.231,-0 382.723,171.492 382.723,382.723c0,211.231 -171.492,382.723 -382.723,382.723l-196.03,0l0,-766.166Z" style="fill:#ffc000;"/><path d="M0,59.802c-0,-32.762 26.555,-59.324 59.317,-59.332c121.011,-0.03 385.022,-0.095 385.022,-0.095c120.277,4.648 216.571,104.218 216.571,225.638c-0,124.381 -100.981,225.362 -225.362,225.362c0,-0 -16.025,-0.035 -34.79,-0.075c-15.492,-0.033 -30.361,6.098 -41.328,17.042c-10.967,10.943 -17.13,25.799 -17.13,41.292c0,91.082 0,256.532 0,256.532l-282.968,0c-32.768,0 -59.332,-26.563 -59.332,-59.331l0,-647.033Z" style="fill:#2c84ff;"/></g></g></svg>