<?xml version="1.0" encoding="UTF-8" standalone="no"?><!DOCTYPE svg PUBLIC "-//W3C//DTD SVG 1.1//EN" "http://www.w3.org/Graphics/SVG/1.1/DTD/svg11.dtd"><svg width="100%" height="100%" viewBox="0 0 1895 738" version="1.1" xmlns="http://www.w3.org/2000/svg" xmlns:xlink="http://www.w3.org/1999/xlink" xml:space="preserve" xmlns:serif="http://www.serif.com/" style="fill-rule:evenodd;clip-rule:evenodd;stroke-linejoin:round;stroke-miterlimit:2;"><g><path d="M1171.43,465.678c0,-5.915 1.194,-11.441 3.581,-16.578c2.386,-5.137 5.707,-9.599 9.962,-13.387c4.255,-3.788 9.314,-6.772 15.177,-8.951c5.864,-2.179 12.272,-3.269 19.225,-3.269c6.849,0 13.205,1.064 19.069,3.191c5.863,2.128 10.948,5.085 15.255,8.873c4.306,3.788 7.653,8.302 10.04,13.543c2.387,5.241 3.58,11.026 3.58,17.356c0,6.331 -1.219,12.116 -3.658,17.357c-2.439,5.241 -5.785,9.755 -10.04,13.543c-4.255,3.787 -9.366,6.719 -15.333,8.795c-5.967,2.075 -12.427,3.113 -19.38,3.113c-6.849,-0 -13.18,-1.038 -18.991,-3.113c-5.812,-2.076 -10.819,-5.034 -15.022,-8.873c-4.203,-3.84 -7.498,-8.432 -9.884,-13.776c-2.387,-5.345 -3.581,-11.286 -3.581,-17.824Zm322.847,-39.227l-0,44.987c-0,9.858 4.774,14.788 14.321,14.788c9.547,-0 14.321,-4.93 14.321,-14.788l0,-44.987l28.175,-0l0,50.435c0,10.793 -3.554,18.887 -10.663,24.283c-7.108,5.397 -17.719,8.095 -31.833,8.095c-14.113,-0 -24.725,-2.698 -31.833,-8.095c-7.109,-5.396 -10.663,-13.49 -10.663,-24.283l-0,-50.435l28.175,-0Zm-54.482,20.547c-5.189,-2.698 -10.274,-4.047 -15.255,-4.047c-2.595,0 -4.696,0.519 -6.305,1.557c-1.608,1.038 -2.413,2.439 -2.413,4.203c0,0.934 0.13,1.686 0.39,2.257c0.259,0.571 0.83,1.115 1.712,1.634c0.882,0.519 2.179,0.986 3.891,1.401c1.713,0.415 3.97,0.934 6.772,1.557c7.783,1.557 13.594,4.333 17.434,8.328c3.84,3.995 5.76,9.106 5.76,15.333c-0,4.67 -0.934,8.873 -2.802,12.609c-1.868,3.735 -4.463,6.875 -7.783,9.417c-3.321,2.543 -7.317,4.514 -11.986,5.915c-4.67,1.401 -9.807,2.102 -15.411,2.102c-10.793,-0 -21.43,-3.061 -31.911,-9.184l10.274,-19.925c7.886,5.396 15.358,8.094 22.415,8.094c2.595,0 4.722,-0.57 6.382,-1.712c1.661,-1.142 2.491,-2.594 2.491,-4.359c-0,-1.037 -0.13,-1.893 -0.389,-2.568c-0.26,-0.675 -0.804,-1.297 -1.635,-1.868c-0.83,-0.571 -2.049,-1.09 -3.658,-1.557c-1.608,-0.467 -3.71,-0.96 -6.304,-1.478c-8.717,-1.765 -14.814,-4.385 -18.291,-7.861c-3.476,-3.477 -5.214,-8.277 -5.214,-14.399c-0,-4.463 0.83,-8.484 2.49,-12.064c1.661,-3.581 4.047,-6.616 7.161,-9.107c3.113,-2.49 6.875,-4.41 11.285,-5.759c4.411,-1.349 9.314,-2.024 14.711,-2.024c8.821,0 17.382,1.712 25.684,5.137l-9.495,18.368Zm398.032,0c-5.189,-2.698 -10.274,-4.047 -15.255,-4.047c-2.595,0 -4.696,0.519 -6.305,1.557c-1.608,1.038 -2.412,2.439 -2.412,4.203c-0,0.934 0.129,1.686 0.389,2.257c0.259,0.571 0.83,1.115 1.712,1.634c0.882,0.519 2.179,0.986 3.892,1.401c1.712,0.415 3.969,0.934 6.771,1.557c7.783,1.557 13.595,4.333 17.434,8.328c3.84,3.995 5.76,9.106 5.76,15.333c-0,4.67 -0.934,8.873 -2.802,12.609c-1.868,3.735 -4.462,6.875 -7.783,9.417c-3.321,2.543 -7.316,4.514 -11.986,5.915c-4.67,1.401 -9.807,2.102 -15.411,2.102c-10.793,-0 -21.43,-3.061 -31.911,-9.184l10.274,-19.925c7.887,5.396 15.359,8.094 22.415,8.094c2.595,0 4.722,-0.57 6.383,-1.712c1.66,-1.142 2.49,-2.594 2.49,-4.359c0,-1.037 -0.13,-1.893 -0.389,-2.568c-0.259,-0.675 -0.804,-1.297 -1.634,-1.868c-0.831,-0.571 -2.05,-1.09 -3.659,-1.557c-1.608,-0.467 -3.71,-0.96 -6.304,-1.478c-8.717,-1.765 -14.814,-4.385 -18.29,-7.861c-3.477,-3.477 -5.215,-8.277 -5.215,-14.399c-0,-4.463 0.83,-8.484 2.49,-12.064c1.661,-3.581 4.048,-6.616 7.161,-9.107c3.113,-2.49 6.875,-4.41 11.286,-5.759c4.41,-1.349 9.313,-2.024 14.71,-2.024c8.821,0 17.382,1.712 25.684,5.137l-9.495,18.368Zm-100.403,-20.547l28.331,-0l-0,79.855l-28.331,0l-0,-8.873c-6.019,7.576 -14.166,11.364 -24.439,11.364c-5.812,-0 -11.156,-1.064 -16.034,-3.191c-4.877,-2.128 -9.132,-5.111 -12.764,-8.951c-3.632,-3.84 -6.46,-8.354 -8.484,-13.543c-2.024,-5.188 -3.035,-10.844 -3.035,-16.967c-0,-5.708 0.985,-11.13 2.957,-16.267c1.972,-5.137 4.722,-9.625 8.25,-13.465c3.529,-3.839 7.732,-6.875 12.609,-9.106c4.878,-2.231 10.274,-3.347 16.189,-3.347c9.963,0 18.213,3.477 24.751,10.43l-0,-7.939Zm-653.01,10.896l37.204,-48.411l37.671,-0l-46.544,55.572l50.902,61.798l-39.538,0l-39.695,-50.902l0,50.902l-30.51,0l0,-117.37l30.51,-0l0,48.411Zm514.002,-60.242l0,129.201l-28.175,0l-0,-129.201l28.175,0Zm293.893,49.346l0,79.855l-28.175,0l0,-79.855l28.175,-0Zm-243.147,23.505l0,56.35l-28.175,0l0,-56.35l-9.34,0l0,-23.505l9.34,-0l0,-23.972l28.175,-0l0,23.972l16.034,-0l-0,23.505l-16.034,0Zm-365.654,-23.505l28.175,-0l0,10.118c3.84,-4.67 7.732,-7.809 11.675,-9.418c3.944,-1.608 8.562,-2.413 13.854,-2.413c5.604,0 10.404,0.909 14.399,2.725c3.995,1.816 7.394,4.384 10.196,7.705c2.283,2.698 3.84,5.708 4.67,9.028c0.83,3.321 1.245,7.109 1.245,11.364l0,50.746l-28.175,0l0,-40.317c0,-3.943 -0.285,-7.134 -0.856,-9.573c-0.571,-2.439 -1.583,-4.384 -3.035,-5.837c-1.246,-1.246 -2.647,-2.128 -4.203,-2.647c-1.557,-0.518 -3.217,-0.778 -4.982,-0.778c-4.773,0 -8.431,1.427 -10.974,4.281c-2.542,2.854 -3.814,6.927 -3.814,12.219l0,42.652l-28.175,0l0,-79.855Zm-82.346,39.538c0,2.699 0.493,5.163 1.479,7.394c0.986,2.232 2.283,4.177 3.892,5.838c1.608,1.66 3.528,2.957 5.759,3.891c2.231,0.934 4.592,1.401 7.083,1.401c2.49,0 4.851,-0.467 7.082,-1.401c2.232,-0.934 4.151,-2.231 5.76,-3.891c1.609,-1.661 2.906,-3.606 3.892,-5.838c0.985,-2.231 1.478,-4.644 1.478,-7.238c0,-2.491 -0.493,-4.851 -1.478,-7.083c-0.986,-2.231 -2.283,-4.177 -3.892,-5.837c-1.609,-1.66 -3.528,-2.958 -5.76,-3.892c-2.231,-0.934 -4.592,-1.401 -7.082,-1.401c-2.491,0 -4.852,0.467 -7.083,1.401c-2.231,0.934 -4.151,2.232 -5.759,3.892c-1.609,1.66 -2.906,3.58 -3.892,5.76c-0.986,2.179 -1.479,4.514 -1.479,7.004Zm500.77,0.156c0,2.594 0.467,5.007 1.401,7.238c0.934,2.232 2.206,4.177 3.814,5.838c1.609,1.66 3.529,2.957 5.76,3.891c2.231,0.934 4.644,1.401 7.238,1.401c2.491,0 4.852,-0.467 7.083,-1.401c2.231,-0.934 4.151,-2.231 5.759,-3.891c1.609,-1.661 2.906,-3.58 3.892,-5.76c0.986,-2.179 1.479,-4.514 1.479,-7.005c-0,-2.49 -0.493,-4.851 -1.479,-7.082c-0.986,-2.232 -2.283,-4.177 -3.892,-5.838c-1.608,-1.66 -3.528,-2.957 -5.759,-3.891c-2.231,-0.934 -4.592,-1.401 -7.083,-1.401c-2.594,-0 -5.007,0.467 -7.238,1.401c-2.231,0.934 -4.151,2.231 -5.76,3.891c-1.608,1.661 -2.88,3.555 -3.814,5.682c-0.934,2.127 -1.401,4.436 -1.401,6.927Zm160.334,-70.36c0,-2.179 0.415,-4.229 1.245,-6.149c0.831,-1.92 1.972,-3.606 3.425,-5.059c1.453,-1.453 3.139,-2.594 5.059,-3.424c1.92,-0.831 3.969,-1.246 6.149,-1.246c2.179,0 4.229,0.415 6.149,1.246c1.919,0.83 3.606,1.971 5.059,3.424c1.452,1.453 2.594,3.139 3.424,5.059c0.83,1.92 1.245,3.97 1.245,6.149c0,2.179 -0.415,4.229 -1.245,6.149c-0.83,1.92 -1.972,3.606 -3.424,5.059c-1.453,1.453 -3.14,2.594 -5.059,3.424c-1.92,0.831 -3.97,1.246 -6.149,1.246c-2.18,-0 -4.229,-0.415 -6.149,-1.246c-1.92,-0.83 -3.606,-1.971 -5.059,-3.424c-1.453,-1.453 -2.594,-3.139 -3.425,-5.059c-0.83,-1.92 -1.245,-3.97 -1.245,-6.149Zm-624.179,-63.57l-33.292,-60.274l19.838,0l22.651,42.564l21.13,-42.564l19.306,0l-58.982,114.316l-19.534,-0l28.883,-54.042Zm294.529,-60.274l17.178,0l0,74.032l-17.178,-0l0,-7.753c-7.043,6.587 -14.618,9.881 -22.726,9.881c-10.236,-0 -18.698,-3.699 -25.386,-11.097c-6.638,-7.55 -9.957,-16.975 -9.957,-28.275c-0,-11.097 3.319,-20.345 9.957,-27.743c6.638,-7.398 14.948,-11.097 24.93,-11.097c8.614,-0 16.342,3.547 23.182,10.641l0,-8.589Zm-356.628,0l17.178,0l0,74.032l-17.178,-0l0,-7.753c-7.043,6.587 -14.618,9.881 -22.726,9.881c-10.236,-0 -18.698,-3.699 -25.387,-11.097c-6.638,-7.55 -9.957,-16.975 -9.957,-28.275c0,-11.097 3.319,-20.345 9.957,-27.743c6.638,-7.398 14.949,-11.097 24.931,-11.097c8.614,-0 16.342,3.547 23.182,10.641l0,-8.589Zm177.934,0l17.178,0l0,74.032l-17.178,-0l0,-7.753c-7.043,6.587 -14.618,9.881 -22.726,9.881c-10.236,-0 -18.698,-3.699 -25.387,-11.097c-6.638,-7.55 -9.957,-16.975 -9.957,-28.275c0,-11.097 3.319,-20.345 9.957,-27.743c6.638,-7.398 14.949,-11.097 24.931,-11.097c8.614,-0 16.342,3.547 23.182,10.641l0,-8.589Zm-280.544,-43.324l-0,100.71l34.507,-0l0,16.646l-52.217,-0l0,-117.356l17.71,-0Zm498.002,43.324l17.178,0l0,6.841c5.979,-5.929 12.719,-8.893 20.218,-8.893c8.614,-0 15.328,2.711 20.142,8.133c4.155,4.611 6.233,12.136 6.233,22.574l-0,45.377l-17.178,-0l0,-41.349c0,-7.296 -1.013,-12.338 -3.04,-15.125c-1.976,-2.838 -5.574,-4.257 -10.793,-4.257c-5.676,0 -9.704,1.875 -12.086,5.625c-2.33,3.699 -3.496,10.16 -3.496,19.382l0,35.724l-17.178,-0l0,-74.032Zm-178.694,0l17.178,0l0,6.841c5.979,-5.929 12.719,-8.893 20.218,-8.893c8.614,-0 15.328,2.711 20.142,8.133c4.155,4.611 6.233,12.136 6.233,22.574l-0,45.377l-17.178,-0l0,-41.349c0,-7.296 -1.013,-12.338 -3.04,-15.125c-1.977,-2.838 -5.574,-4.257 -10.793,-4.257c-5.676,0 -9.704,1.875 -12.086,5.625c-2.331,3.699 -3.496,10.16 -3.496,19.382l0,35.724l-17.178,-0l0,-74.032Zm-257.286,36.788c0,7.094 1.9,12.87 5.701,17.33c3.902,4.509 8.817,6.764 14.745,6.764c6.334,0 11.452,-2.179 15.354,-6.536c3.902,-4.51 5.852,-10.236 5.852,-17.178c0,-6.942 -1.95,-12.668 -5.852,-17.178c-3.902,-4.408 -8.969,-6.613 -15.202,-6.613c-5.878,0 -10.793,2.23 -14.745,6.689c-3.902,4.51 -5.853,10.084 -5.853,16.722Zm356.628,-0c0,7.094 1.901,12.87 5.701,17.33c3.902,4.509 8.817,6.764 14.745,6.764c6.334,0 11.452,-2.179 15.354,-6.536c3.902,-4.51 5.853,-10.236 5.853,-17.178c-0,-6.942 -1.951,-12.668 -5.853,-17.178c-3.902,-4.408 -8.969,-6.613 -15.202,-6.613c-5.877,0 -10.793,2.23 -14.745,6.689c-3.902,4.51 -5.853,10.084 -5.853,16.722Zm-178.694,-0c0,7.094 1.9,12.87 5.701,17.33c3.902,4.509 8.817,6.764 14.745,6.764c6.334,0 11.452,-2.179 15.354,-6.536c3.902,-4.51 5.852,-10.236 5.852,-17.178c0,-6.942 -1.95,-12.668 -5.852,-17.178c-3.902,-4.408 -8.969,-6.613 -15.202,-6.613c-5.878,0 -10.793,2.23 -14.745,6.689c-3.902,4.51 -5.853,10.084 -5.853,16.722Z" style="fill:#6c6c6c;fill-rule:nonzero;"/><g><path d="M368.833,0c0,0 340.871,0.324 340.871,0.324c44.897,0.06 81.262,36.473 81.262,81.37c-0,0.001 -0,0.001 -0,0.001c-0,21.728 -8.641,42.563 -24.019,57.914c-15.377,15.35 -36.228,23.954 -57.956,23.915c-45.88,-0.113 -94.215,-0.232 -95.667,-0.232c-34.19,-0 -61.948,27.758 -61.948,61.948c0,34.189 27.758,61.947 61.948,61.947c2.784,0 91.324,0.385 91.324,0.385c120.217,4.647 216.405,103.711 216.405,225.069c0,124.313 -100.926,225.24 -225.239,225.24l-0,-0c-0,-0 -326.994,-0.215 -326.981,-0.215c-203.564,0 -368.833,-165.268 -368.833,-368.833c0,-203.564 165.269,-368.833 368.833,-368.833Zm27.894,163.292c-5.627,19.673 -8.642,40.461 -8.642,61.948c-0,121.357 96.189,220.422 216.405,225.068c-0,0 88.544,0.385 91.324,0.385c34.19,0 61.948,27.758 61.948,61.948c-0,34.189 -27.757,61.947 -61.946,61.948c-0,-0 -328.339,-0.219 -328.339,-0.219c-112.817,-0.728 -204.185,-92.547 -204.185,-205.537c-0,-113.441 92.1,-205.541 205.541,-205.541l27.894,-0Z" style="fill:#2c84ff;"/><path d="M396.727,163.292c-5.627,19.673 -8.642,40.461 -8.642,61.948c-0,121.357 96.189,220.422 216.405,225.068c-0,0 88.544,0.385 91.324,0.385c34.19,0 61.948,27.758 61.948,61.948c-0,34.189 -27.757,61.947 -61.946,61.948c-0,-0 -328.339,-0.219 -328.339,-0.219c-112.817,-0.728 -204.185,-92.547 -204.185,-205.537c-0,-113.441 92.1,-205.541 205.541,-205.541l27.894,-0Z" style="fill:#ffc000;"/></g></g></svg>