<?xml version="1.0" encoding="UTF-8" standalone="no"?><!DOCTYPE svg PUBLIC "-//W3C//DTD SVG 1.1//EN" "http://www.w3.org/Graphics/SVG/1.1/DTD/svg11.dtd"><svg width="100%" height="100%" viewBox="0 0 2058 767" version="1.1" xmlns="http://www.w3.org/2000/svg" xmlns:xlink="http://www.w3.org/1999/xlink" xml:space="preserve" xmlns:serif="http://www.serif.com/" style="fill-rule:evenodd;clip-rule:evenodd;stroke-linejoin:round;stroke-miterlimit:2;"><g><path d="M1601.52,622.02l-28.176,-0l0,-119.706l28.176,0l-0,8.873c6.019,-7.575 14.217,-11.363 24.594,-11.363c5.708,-0 11.027,1.115 15.956,3.346c4.929,2.232 9.21,5.267 12.842,9.107c3.632,3.839 6.46,8.354 8.484,13.543c2.023,5.188 3.035,10.74 3.035,16.656c0,5.915 -1.012,11.415 -3.035,16.5c-2.024,5.085 -4.826,9.547 -8.406,13.387c-3.58,3.84 -7.809,6.849 -12.687,9.028c-4.877,2.18 -10.17,3.269 -15.877,3.269c-9.963,0 -18.265,-3.424 -24.906,-10.273l-0,47.633Zm-496.257,-84.681c6.227,-5.916 11.312,-11.519 15.256,-16.812l17.278,16.656c-1.764,2.387 -3.762,4.8 -5.993,7.238c-2.231,2.439 -4.8,5.008 -7.705,7.706l-2.335,2.179l26.151,27.864l-37.982,-0l-10.273,-10.741c-14.01,9.34 -27.449,14.01 -40.317,14.01c-5.5,-0 -10.534,-0.83 -15.1,-2.491c-4.566,-1.66 -8.509,-3.995 -11.83,-7.005c-3.321,-3.009 -5.915,-6.564 -7.783,-10.663c-1.868,-4.099 -2.802,-8.587 -2.802,-13.465c-0,-4.358 0.596,-8.224 1.79,-11.597c1.193,-3.372 3.243,-6.615 6.149,-9.729c2.179,-2.386 4.592,-4.436 7.238,-6.148c2.646,-1.713 5.889,-3.451 9.729,-5.215l3.269,-1.557l-2.024,-2.335c-6.019,-7.575 -9.028,-14.788 -9.028,-21.637c-0,-4.566 0.934,-8.821 2.802,-12.764c1.868,-3.944 4.436,-7.342 7.705,-10.196c3.269,-2.854 7.135,-5.085 11.597,-6.694c4.462,-1.608 9.288,-2.413 14.477,-2.413c5.292,0 10.17,0.805 14.632,2.413c4.462,1.609 8.328,3.866 11.597,6.772c3.269,2.905 5.811,6.304 7.628,10.196c1.816,3.891 2.724,8.12 2.724,12.686c-0,3.113 -0.364,5.941 -1.09,8.484c-0.726,2.542 -1.946,4.929 -3.658,7.16c-1.712,2.232 -3.944,4.359 -6.694,6.383c-2.75,2.023 -6.148,4.073 -10.196,6.148l14.788,15.567Zm574.088,4.203c0,-5.916 1.194,-11.442 3.581,-16.579c2.387,-5.137 5.707,-9.599 9.962,-13.387c4.255,-3.788 9.314,-6.771 15.177,-8.95c5.864,-2.18 12.272,-3.269 19.225,-3.269c6.849,-0 13.205,1.063 19.069,3.191c5.863,2.127 10.948,5.085 15.255,8.873c4.306,3.787 7.653,8.302 10.04,13.542c2.387,5.241 3.58,11.027 3.58,17.357c0,6.33 -1.219,12.116 -3.658,17.356c-2.439,5.241 -5.785,9.755 -10.04,13.543c-4.255,3.788 -9.366,6.72 -15.333,8.795c-5.967,2.076 -12.427,3.113 -19.38,3.113c-6.849,0 -13.18,-1.037 -18.991,-3.113c-5.812,-2.075 -10.819,-5.033 -15.022,-8.873c-4.203,-3.839 -7.497,-8.431 -9.884,-13.776c-2.387,-5.344 -3.581,-11.286 -3.581,-17.823Zm-337.946,5.448c0,12.142 5.708,18.212 17.123,18.212c6.123,0 10.741,-2.49 13.854,-7.471l27.242,-0c-5.5,18.264 -19.251,27.396 -41.251,27.396c-6.746,0 -12.92,-1.011 -18.524,-3.035c-5.604,-2.024 -10.404,-4.903 -14.399,-8.639c-3.996,-3.736 -7.083,-8.199 -9.262,-13.387c-2.179,-5.189 -3.269,-11.001 -3.269,-17.435c-0,-6.641 1.038,-12.634 3.113,-17.979c2.076,-5.344 5.033,-9.885 8.873,-13.621c3.84,-3.735 8.484,-6.615 13.932,-8.639c5.448,-2.023 11.597,-3.035 18.446,-3.035c6.746,-0 12.816,1.012 18.213,3.035c5.396,2.024 9.962,4.955 13.698,8.795c3.736,3.84 6.59,8.536 8.562,14.088c1.971,5.552 2.957,11.804 2.957,18.757l0,2.958l-59.308,-0Zm184.462,-44.676l28.331,0l-0,79.856l-28.331,-0l-0,-8.873c-6.019,7.576 -14.165,11.363 -24.439,11.363c-5.812,0 -11.156,-1.063 -16.034,-3.191c-4.877,-2.127 -9.132,-5.111 -12.764,-8.95c-3.632,-3.84 -6.46,-8.354 -8.484,-13.543c-2.023,-5.189 -3.035,-10.845 -3.035,-16.967c-0,-5.708 0.986,-11.13 2.957,-16.267c1.972,-5.137 4.722,-9.626 8.251,-13.465c3.528,-3.84 7.731,-6.875 12.608,-9.107c4.878,-2.231 10.274,-3.346 16.189,-3.346c9.963,-0 18.213,3.476 24.751,10.429l-0,-7.939Zm399.589,0l28.331,0l-0,79.856l-28.331,-0l-0,-8.873c-6.019,7.576 -14.166,11.363 -24.439,11.363c-5.812,0 -11.156,-1.063 -16.034,-3.191c-4.877,-2.127 -9.132,-5.111 -12.764,-8.95c-3.632,-3.84 -6.46,-8.354 -8.484,-13.543c-2.024,-5.189 -3.035,-10.845 -3.035,-16.967c-0,-5.708 0.986,-11.13 2.957,-16.267c1.972,-5.137 4.722,-9.626 8.25,-13.465c3.529,-3.84 7.732,-6.875 12.609,-9.107c4.878,-2.231 10.274,-3.346 16.189,-3.346c9.963,-0 18.213,3.476 24.751,10.429l-0,-7.939Zm47.477,0l28.175,0l0,10.118c3.84,-4.669 7.732,-7.809 11.675,-9.417c3.944,-1.609 8.562,-2.413 13.854,-2.413c5.604,0 10.404,0.908 14.399,2.724c3.996,1.816 7.394,4.385 10.196,7.705c2.283,2.699 3.84,5.708 4.67,9.029c0.83,3.321 1.245,7.109 1.245,11.363l0,50.747l-28.175,-0l0,-40.317c0,-3.944 -0.285,-7.135 -0.856,-9.573c-0.571,-2.439 -1.583,-4.385 -3.035,-5.838c-1.246,-1.245 -2.647,-2.127 -4.203,-2.646c-1.557,-0.519 -3.217,-0.778 -4.982,-0.778c-4.773,-0 -8.431,1.427 -10.974,4.28c-2.542,2.854 -3.814,6.927 -3.814,12.22l0,42.652l-28.175,-0l0,-79.856Zm-181.504,0l28.175,0l0,13.076c3.01,-4.774 6.694,-8.432 11.053,-10.974c4.358,-2.543 9.443,-3.814 15.255,-3.814l2.412,0c0.882,0 1.894,0.104 3.036,0.311l-0,26.93c-3.736,-1.868 -7.783,-2.802 -12.142,-2.802c-6.538,0 -11.441,1.946 -14.71,5.838c-3.269,3.891 -4.904,9.573 -4.904,17.045l0,34.246l-28.175,-0l0,-79.856Zm-547.78,79.856l-30.511,-0l0,-117.371l48.568,0c13.179,0 23.271,3.425 30.276,10.274c7.005,6.849 10.507,16.501 10.507,28.954c0,12.453 -3.502,22.104 -10.507,28.953c-7.005,6.849 -17.097,10.274 -30.276,10.274l-18.057,-0l-0,38.916Zm201.273,-129.201l-0,129.201l-28.175,-0l-0,-129.201l28.175,-0Zm192.089,89.507c-0,-2.491 -0.441,-4.852 -1.323,-7.083c-0.882,-2.231 -2.154,-4.177 -3.814,-5.838c-1.66,-1.66 -3.606,-2.983 -5.837,-3.969c-2.232,-0.986 -4.644,-1.479 -7.239,-1.479c-2.49,0 -4.825,0.467 -7.005,1.401c-2.179,0.934 -4.073,2.231 -5.681,3.892c-1.609,1.66 -2.906,3.606 -3.892,5.837c-0.986,2.231 -1.479,4.592 -1.479,7.083c0,2.491 0.467,4.825 1.401,7.005c0.934,2.179 2.231,4.073 3.892,5.681c1.66,1.609 3.606,2.906 5.837,3.892c2.231,0.986 4.592,1.479 7.083,1.479c2.49,-0 4.825,-0.467 7.005,-1.401c2.179,-0.934 4.073,-2.231 5.681,-3.892c1.609,-1.66 2.906,-3.58 3.892,-5.759c0.986,-2.18 1.479,-4.463 1.479,-6.849Zm72.072,-0.623c0,2.698 0.493,5.163 1.479,7.394c0.986,2.231 2.283,4.177 3.892,5.837c1.608,1.661 3.528,2.958 5.759,3.892c2.231,0.934 4.592,1.401 7.083,1.401c2.49,-0 4.851,-0.467 7.083,-1.401c2.231,-0.934 4.151,-2.231 5.759,-3.892c1.609,-1.66 2.906,-3.606 3.892,-5.837c0.986,-2.231 1.478,-4.644 1.478,-7.238c0,-2.491 -0.492,-4.852 -1.478,-7.083c-0.986,-2.231 -2.283,-4.177 -3.892,-5.838c-1.608,-1.66 -3.528,-2.957 -5.759,-3.891c-2.232,-0.934 -4.593,-1.401 -7.083,-1.401c-2.491,-0 -4.852,0.467 -7.083,1.401c-2.231,0.934 -4.151,2.231 -5.759,3.891c-1.609,1.661 -2.906,3.581 -3.892,5.76c-0.986,2.179 -1.479,4.514 -1.479,7.005Zm-218.707,0.156c-0,2.594 0.467,5.007 1.401,7.238c0.934,2.231 2.205,4.177 3.813,5.837c1.609,1.661 3.529,2.958 5.76,3.892c2.231,0.934 4.644,1.401 7.238,1.401c2.491,-0 4.852,-0.467 7.083,-1.401c2.231,-0.934 4.151,-2.231 5.76,-3.892c1.608,-1.66 2.905,-3.58 3.891,-5.759c0.986,-2.18 1.479,-4.514 1.479,-7.005c-0,-2.491 -0.493,-4.852 -1.479,-7.083c-0.986,-2.231 -2.283,-4.177 -3.891,-5.837c-1.609,-1.661 -3.529,-2.958 -5.76,-3.892c-2.231,-0.934 -4.592,-1.401 -7.083,-1.401c-2.594,0 -5.007,0.467 -7.238,1.401c-2.231,0.934 -4.151,2.231 -5.76,3.892c-1.608,1.66 -2.879,3.554 -3.813,5.682c-0.934,2.127 -1.401,4.436 -1.401,6.927Zm399.588,-0c0,2.594 0.467,5.007 1.401,7.238c0.934,2.231 2.206,4.177 3.814,5.837c1.609,1.661 3.529,2.958 5.76,3.892c2.231,0.934 4.644,1.401 7.238,1.401c2.491,-0 4.852,-0.467 7.083,-1.401c2.231,-0.934 4.151,-2.231 5.759,-3.892c1.609,-1.66 2.906,-3.58 3.892,-5.759c0.986,-2.18 1.479,-4.514 1.479,-7.005c-0,-2.491 -0.493,-4.852 -1.479,-7.083c-0.986,-2.231 -2.283,-4.177 -3.892,-5.837c-1.608,-1.661 -3.528,-2.958 -5.759,-3.892c-2.231,-0.934 -4.592,-1.401 -7.083,-1.401c-2.594,0 -5.007,0.467 -7.238,1.401c-2.231,0.934 -4.151,2.231 -5.76,3.892c-1.608,1.66 -2.88,3.554 -3.814,5.682c-0.934,2.127 -1.401,4.436 -1.401,6.927Zm-825.484,-8.873c-7.369,4.566 -11.053,9.132 -11.053,13.698c0,1.661 0.364,3.191 1.09,4.592c0.727,1.401 1.712,2.595 2.958,3.58c1.245,0.986 2.672,1.765 4.28,2.335c1.609,0.571 3.347,0.857 5.215,0.857c5.189,-0 10.533,-1.713 16.034,-5.137l-18.524,-19.925Zm309.926,-2.491c-0.934,-3.943 -2.854,-7.109 -5.759,-9.495c-2.906,-2.387 -6.435,-3.581 -10.586,-3.581c-4.358,0 -7.913,1.142 -10.663,3.425c-2.75,2.283 -4.488,5.5 -5.214,9.651l32.222,0Zm-130.757,-11.986l10.118,0c11.207,0 16.811,-4.877 16.811,-14.632c0,-9.755 -5.604,-14.633 -16.811,-14.633l-10.118,0l-0,29.265Zm-166.561,-11.052c7.265,-4.359 10.897,-9.236 10.897,-14.633c-0,-2.905 -0.96,-5.422 -2.88,-7.549c-1.92,-2.128 -4.385,-3.191 -7.394,-3.191c-2.802,-0 -5.137,0.934 -7.005,2.802c-1.868,1.868 -2.802,4.203 -2.802,7.004c0,3.736 3.062,8.925 9.184,15.567Zm209.057,-165.626l-0,44.986c-0,9.859 4.773,14.789 14.321,14.789c9.547,-0 14.321,-4.93 14.321,-14.789l-0,-44.986l28.175,-0l0,50.435c0,10.792 -3.554,18.887 -10.663,24.283c-7.109,5.397 -17.72,8.095 -31.833,8.095c-14.114,-0 -24.725,-2.698 -31.833,-8.095c-7.109,-5.396 -10.663,-13.491 -10.663,-24.283l-0,-50.435l28.175,-0Zm502.794,20.547c-5.189,-2.698 -10.274,-4.047 -15.255,-4.047c-2.595,-0 -4.696,0.519 -6.305,1.557c-1.608,1.037 -2.413,2.438 -2.413,4.203c0,0.934 0.13,1.686 0.39,2.257c0.259,0.57 0.83,1.115 1.712,1.634c0.882,0.519 2.179,0.986 3.892,1.401c1.712,0.415 3.969,0.934 6.771,1.557c7.783,1.556 13.595,4.332 17.434,8.328c3.84,3.995 5.76,9.106 5.76,15.333c-0,4.67 -0.934,8.872 -2.802,12.608c-1.868,3.736 -4.463,6.876 -7.783,9.418c-3.321,2.543 -7.317,4.514 -11.986,5.915c-4.67,1.401 -9.807,2.102 -15.411,2.102c-10.793,-0 -21.43,-3.062 -31.911,-9.184l10.274,-19.925c7.887,5.396 15.358,8.094 22.415,8.094c2.595,0 4.722,-0.571 6.382,-1.712c1.661,-1.142 2.491,-2.595 2.491,-4.359c-0,-1.037 -0.13,-1.894 -0.389,-2.568c-0.26,-0.675 -0.804,-1.297 -1.635,-1.868c-0.83,-0.571 -2.049,-1.09 -3.658,-1.557c-1.608,-0.467 -3.71,-0.96 -6.304,-1.479c-8.717,-1.764 -14.814,-4.384 -18.291,-7.861c-3.476,-3.476 -5.214,-8.276 -5.214,-14.399c-0,-4.462 0.83,-8.483 2.49,-12.063c1.661,-3.581 4.048,-6.616 7.161,-9.107c3.113,-2.49 6.875,-4.41 11.285,-5.759c4.411,-1.349 9.314,-2.024 14.711,-2.024c8.821,0 17.382,1.712 25.684,5.137l-9.495,18.368Zm-203.764,-20.547l28.331,-0l-0,79.855l-28.331,0l-0,-8.873c-6.019,7.576 -14.166,11.364 -24.439,11.364c-5.812,-0 -11.156,-1.064 -16.034,-3.191c-4.877,-2.128 -9.132,-5.111 -12.764,-8.951c-3.632,-3.84 -6.46,-8.354 -8.484,-13.543c-2.023,-5.189 -3.035,-10.844 -3.035,-16.967c-0,-5.708 0.986,-11.13 2.957,-16.267c1.972,-5.137 4.722,-9.625 8.25,-13.465c3.529,-3.84 7.732,-6.875 12.609,-9.106c4.878,-2.231 10.274,-3.347 16.189,-3.347c9.963,0 18.213,3.477 24.751,10.429l-0,-7.938Zm-407.684,-49.346l0,78.143l29.577,-28.797l38.604,-0l-40.005,36.892l42.34,42.963l-39.538,0l-30.978,-32.534l0,32.534l-28.175,0l0,-129.201l28.175,0Zm319.422,72.851l0,56.35l-28.175,0l0,-56.35l-9.339,-0l-0,-23.505l9.339,-0l0,-23.973l28.175,0l0,23.973l16.034,-0l-0,23.505l-16.034,-0Zm135.739,-23.505l28.175,-0l0,10.118c3.84,-4.67 7.732,-7.809 11.675,-9.418c3.944,-1.608 8.562,-2.413 13.854,-2.413c5.604,0 10.404,0.908 14.399,2.724c3.996,1.817 7.394,4.385 10.196,7.706c2.283,2.698 3.84,5.707 4.67,9.028c0.83,3.321 1.245,7.109 1.245,11.364l0,50.746l-28.175,0l0,-40.317c0,-3.943 -0.285,-7.134 -0.856,-9.573c-0.571,-2.439 -1.583,-4.385 -3.035,-5.837c-1.246,-1.246 -2.647,-2.128 -4.203,-2.647c-1.557,-0.519 -3.217,-0.778 -4.982,-0.778c-4.773,-0 -8.431,1.427 -10.974,4.281c-2.542,2.854 -3.814,6.927 -3.814,12.219l0,42.652l-28.175,0l0,-79.855Zm-533.615,59.463l-43.586,0l-7.005,20.392l-32.534,0l44.676,-117.37l33.312,-0l44.676,117.37l-32.534,0l-7.005,-20.392Zm263.072,-59.463l28.175,-0l-0,10.118c3.84,-4.67 7.731,-7.809 11.675,-9.418c3.943,-1.608 8.561,-2.413 13.854,-2.413c5.604,0 10.403,0.908 14.399,2.724c3.995,1.817 7.394,4.385 10.196,7.706c2.283,2.698 3.839,5.707 4.669,9.028c0.831,3.321 1.246,7.109 1.246,11.364l-0,50.746l-28.175,0l-0,-40.317c-0,-3.943 -0.286,-7.134 -0.857,-9.573c-0.57,-2.439 -1.582,-4.385 -3.035,-5.837c-1.245,-1.246 -2.646,-2.128 -4.203,-2.647c-1.557,-0.519 -3.217,-0.778 -4.981,-0.778c-4.774,-0 -8.432,1.427 -10.974,4.281c-2.543,2.854 -3.814,6.927 -3.814,12.219l-0,42.652l-28.175,0l-0,-79.855Zm481.312,-0l-0,79.855l-28.175,0l-0,-79.855l28.175,-0Zm-293.738,39.694c0,2.594 0.467,5.007 1.401,7.238c0.934,2.231 2.206,4.177 3.814,5.838c1.609,1.66 3.529,2.957 5.76,3.891c2.231,0.934 4.644,1.401 7.238,1.401c2.491,0 4.852,-0.467 7.083,-1.401c2.231,-0.934 4.151,-2.231 5.759,-3.891c1.609,-1.661 2.906,-3.581 3.892,-5.76c0.986,-2.179 1.479,-4.514 1.479,-7.005c-0,-2.49 -0.493,-4.851 -1.479,-7.082c-0.986,-2.232 -2.283,-4.177 -3.892,-5.838c-1.608,-1.66 -3.528,-2.957 -5.759,-3.891c-2.231,-0.934 -4.592,-1.401 -7.083,-1.401c-2.594,-0 -5.007,0.467 -7.238,1.401c-2.231,0.934 -4.151,2.231 -5.76,3.891c-1.608,1.661 -2.88,3.554 -3.814,5.682c-0.934,2.127 -1.401,4.436 -1.401,6.927Zm-458.741,-3.425l-13.698,-39.071l-13.698,39.071l27.396,0Zm722.436,-66.935c-0,-2.179 0.415,-4.229 1.245,-6.149c0.83,-1.92 1.972,-3.606 3.425,-5.059c1.453,-1.453 3.139,-2.594 5.059,-3.425c1.92,-0.83 3.969,-1.245 6.149,-1.245c2.179,0 4.228,0.415 6.148,1.245c1.92,0.831 3.607,1.972 5.059,3.425c1.453,1.453 2.595,3.139 3.425,5.059c0.83,1.92 1.245,3.97 1.245,6.149c0,2.179 -0.415,4.229 -1.245,6.149c-0.83,1.919 -1.972,3.606 -3.425,5.059c-1.452,1.453 -3.139,2.594 -5.059,3.424c-1.92,0.83 -3.969,1.246 -6.148,1.246c-2.18,-0 -4.229,-0.416 -6.149,-1.246c-1.92,-0.83 -3.606,-1.971 -5.059,-3.424c-1.453,-1.453 -2.595,-3.14 -3.425,-5.059c-0.83,-1.92 -1.245,-3.97 -1.245,-6.149Zm-602.075,-63.57l-33.292,-60.274l19.838,-0l22.651,42.564l21.13,-42.564l19.306,-0l-58.982,114.316l-19.534,-0l28.883,-54.042Zm294.53,-60.274l17.177,-0l0,74.031l-17.177,0l-0,-7.752c-7.044,6.587 -14.619,9.881 -22.727,9.881c-10.235,-0 -18.698,-3.699 -25.386,-11.097c-6.638,-7.551 -9.957,-16.975 -9.957,-28.275c-0,-11.097 3.319,-20.345 9.957,-27.743c6.638,-7.398 14.948,-11.097 24.93,-11.097c8.614,-0 16.342,3.547 23.183,10.641l-0,-8.589Zm-178.695,-0l17.178,-0l0,74.031l-17.178,0l0,-7.752c-7.043,6.587 -14.618,9.881 -22.726,9.881c-10.236,-0 -18.698,-3.699 -25.386,-11.097c-6.638,-7.551 -9.957,-16.975 -9.957,-28.275c-0,-11.097 3.319,-20.345 9.957,-27.743c6.638,-7.398 14.948,-11.097 24.93,-11.097c8.614,-0 16.342,3.547 23.182,10.641l0,-8.589Zm-177.934,-0l17.178,-0l0,74.031l-17.178,0l0,-7.752c-7.043,6.587 -14.618,9.881 -22.726,9.881c-10.236,-0 -18.698,-3.699 -25.386,-11.097c-6.638,-7.551 -9.957,-16.975 -9.957,-28.275c-0,-11.097 3.319,-20.345 9.957,-27.743c6.638,-7.398 14.948,-11.097 24.93,-11.097c8.614,-0 16.342,3.547 23.182,10.641l0,-8.589Zm-102.61,-43.324l0,100.71l34.508,-0l-0,16.645l-52.218,0l0,-117.355l17.71,-0Zm498.002,43.324l17.178,-0l0,6.841c5.979,-5.929 12.719,-8.893 20.218,-8.893c8.614,-0 15.328,2.711 20.142,8.133c4.155,4.611 6.233,12.135 6.233,22.574l-0,45.376l-17.178,0l0,-41.348c0,-7.296 -1.013,-12.338 -3.04,-15.125c-1.976,-2.838 -5.574,-4.257 -10.793,-4.257c-5.675,0 -9.704,1.875 -12.085,5.625c-2.331,3.699 -3.497,10.16 -3.497,19.382l0,35.723l-17.178,0l0,-74.031Zm-178.694,-0l17.178,-0l0,6.841c5.979,-5.929 12.719,-8.893 20.218,-8.893c8.614,-0 15.328,2.711 20.142,8.133c4.155,4.611 6.233,12.135 6.233,22.574l-0,45.376l-17.178,0l0,-41.348c0,-7.296 -1.013,-12.338 -3.04,-15.125c-1.976,-2.838 -5.574,-4.257 -10.793,-4.257c-5.676,0 -9.704,1.875 -12.086,5.625c-2.33,3.699 -3.496,10.16 -3.496,19.382l0,35.723l-17.178,0l0,-74.031Zm-79.352,36.788c0,7.094 1.901,12.87 5.701,17.329c3.902,4.51 8.817,6.765 14.745,6.765c6.334,0 11.452,-2.179 15.354,-6.537c3.902,-4.509 5.853,-10.235 5.853,-17.177c-0,-6.942 -1.951,-12.668 -5.853,-17.178c-3.902,-4.408 -8.969,-6.613 -15.202,-6.613c-5.878,0 -10.793,2.23 -14.745,6.689c-3.902,4.51 -5.853,10.084 -5.853,16.722Zm178.694,-0c0,7.094 1.901,12.87 5.701,17.329c3.902,4.51 8.817,6.765 14.745,6.765c6.334,0 11.452,-2.179 15.354,-6.537c3.902,-4.509 5.853,-10.235 5.853,-17.177c-0,-6.942 -1.951,-12.668 -5.853,-17.178c-3.902,-4.408 -8.969,-6.613 -15.202,-6.613c-5.877,0 -10.793,2.23 -14.745,6.689c-3.902,4.51 -5.853,10.084 -5.853,16.722Zm-356.628,-0c0,7.094 1.901,12.87 5.701,17.329c3.902,4.51 8.817,6.765 14.745,6.765c6.334,0 11.452,-2.179 15.354,-6.537c3.902,-4.509 5.853,-10.235 5.853,-17.177c-0,-6.942 -1.951,-12.668 -5.853,-17.178c-3.902,-4.408 -8.969,-6.613 -15.202,-6.613c-5.878,0 -10.793,2.23 -14.745,6.689c-3.902,4.51 -5.853,10.084 -5.853,16.722Z" style="fill:#6c6c6c;fill-rule:nonzero;"/><g><path d="M362.55,766.166l90.562,-766.166l-55.234,0c-21.716,-0 -41.634,12.063 -51.695,31.308c-57.446,109.886 -251.167,480.445 -339.545,649.5c-9.453,18.082 -8.771,39.79 1.799,57.243c10.57,17.454 29.492,28.115 49.896,28.115c118.513,0 304.217,0 304.217,0Z" style="fill:#2c84ff;"/><path d="M629.729,451.175c-32.217,0 -58.334,26.117 -58.334,58.334c0,56.519 0,141.761 0,198.292c0,15.476 -6.15,30.318 -17.097,41.259c-10.946,10.941 -25.792,17.083 -41.268,17.074c-61.788,-0.034 -150.48,-0.083 -150.48,-0.083l0,-707.229c0,-32.172 26.046,-58.27 58.218,-58.333c88.335,-0.176 246.06,-0.489 246.06,-0.489l-0.27,0.623c120.278,4.649 216.51,103.771 216.51,225.191c-0,124.38 -100.981,225.361 -225.362,225.361l-27.977,0Z" style="fill:#ffc000;"/></g></g></svg>